<mxfile host="Electron" modified="2024-05-10T14:21:15.891Z" agent="Mozilla/5.0 (Macintosh; Intel Mac OS X 10_15_7) AppleWebKit/537.36 (KHTML, like Gecko) draw.io/24.2.5 Chrome/120.0.6099.109 Electron/28.1.0 Safari/537.36" etag="GuhPJZ3navwUAVBnByNI" version="24.2.5" type="device">
  <diagram name="ORCA Dev Deployment" id="KFpIIOAOzxwu-xLGHBJ7">
    <mxGraphModel dx="2672" dy="2175" grid="1" gridSize="10" guides="1" tooltips="1" connect="1" arrows="1" fold="1" page="1" pageScale="1" pageWidth="827" pageHeight="1169" math="0" shadow="0">
      <root>
        <mxCell id="4b0qa3zkEUUkzy0Bb4p2-0" />
        <mxCell id="4b0qa3zkEUUkzy0Bb4p2-1" parent="4b0qa3zkEUUkzy0Bb4p2-0" />
        <mxCell id="dyh5tfgS4Bt14PRK0usx-27" value="&lt;b&gt;&lt;font style=&quot;font-size: 14px;&quot;&gt;Developer Workstation&lt;/font&gt;&lt;/b&gt;" style="shape=cube;whiteSpace=wrap;html=1;boundedLbl=1;backgroundOutline=1;darkOpacity=0.05;darkOpacity2=0.1;verticalAlign=top;" vertex="1" parent="4b0qa3zkEUUkzy0Bb4p2-1">
          <mxGeometry x="-70" y="80" width="1220" height="580" as="geometry" />
        </mxCell>
        <object placeholders="1" c4Name="Clinic" c4Type="SystemScopeBoundary" c4Application="Docker Compose" label="&lt;font style=&quot;font-size: 16px&quot;&gt;&lt;b&gt;&lt;div style=&quot;text-align: left&quot;&gt;%c4Name%&lt;/div&gt;&lt;/b&gt;&lt;/font&gt;&lt;div style=&quot;text-align: left&quot;&gt;[%c4Application%]&lt;/div&gt;" id="dyh5tfgS4Bt14PRK0usx-0">
          <mxCell style="rounded=1;fontSize=11;whiteSpace=wrap;html=1;dashed=1;arcSize=20;fillColor=none;strokeColor=#666666;fontColor=#333333;labelBackgroundColor=none;align=left;verticalAlign=bottom;labelBorderColor=none;spacingTop=0;spacing=10;dashPattern=8 4;metaEdit=1;rotatable=0;perimeter=rectanglePerimeter;noLabel=0;labelPadding=0;allowArrows=0;connectable=0;expand=0;recursiveResize=0;editable=1;pointerEvents=0;absoluteArcSize=1;points=[[0.25,0,0],[0.5,0,0],[0.75,0,0],[1,0.25,0],[1,0.5,0],[1,0.75,0],[0.75,1,0],[0.5,1,0],[0.25,1,0],[0,0.75,0],[0,0.5,0],[0,0.25,0]];" vertex="1" parent="4b0qa3zkEUUkzy0Bb4p2-1">
            <mxGeometry x="10" y="220" width="560" height="390" as="geometry" />
          </mxCell>
        </object>
        <object placeholders="1" c4Name="SSI Wallet" c4Type="Container" c4Technology="Nuts Node" c4Description="" label="&lt;font style=&quot;font-size: 16px&quot;&gt;&lt;b&gt;%c4Name%&lt;/b&gt;&lt;/font&gt;&lt;div&gt;[%c4Type%: %c4Technology%]&lt;/div&gt;&lt;br&gt;&lt;div&gt;&lt;font style=&quot;font-size: 11px&quot;&gt;&lt;font color=&quot;#E6E6E6&quot;&gt;%c4Description%&lt;/font&gt;&lt;/div&gt;" id="dyh5tfgS4Bt14PRK0usx-1">
          <mxCell style="rounded=1;whiteSpace=wrap;html=1;fontSize=11;labelBackgroundColor=none;fillColor=#23A2D9;fontColor=#ffffff;align=center;arcSize=10;strokeColor=#0E7DAD;metaEdit=1;resizable=0;points=[[0.25,0,0],[0.5,0,0],[0.75,0,0],[1,0.25,0],[1,0.5,0],[1,0.75,0],[0.75,1,0],[0.5,1,0],[0.25,1,0],[0,0.75,0],[0,0.5,0],[0,0.25,0]];" vertex="1" parent="4b0qa3zkEUUkzy0Bb4p2-1">
            <mxGeometry x="30" y="400" width="240" height="120" as="geometry" />
          </mxCell>
        </object>
        <mxCell id="dyh5tfgS4Bt14PRK0usx-4" value="" style="edgeStyle=orthogonalEdgeStyle;rounded=0;orthogonalLoop=1;jettySize=auto;html=1;" edge="1" parent="4b0qa3zkEUUkzy0Bb4p2-1" source="dyh5tfgS4Bt14PRK0usx-2" target="dyh5tfgS4Bt14PRK0usx-1">
          <mxGeometry relative="1" as="geometry" />
        </mxCell>
        <mxCell id="dyh5tfgS4Bt14PRK0usx-6" value="" style="edgeStyle=orthogonalEdgeStyle;rounded=0;orthogonalLoop=1;jettySize=auto;html=1;" edge="1" parent="4b0qa3zkEUUkzy0Bb4p2-1" source="dyh5tfgS4Bt14PRK0usx-2" target="dyh5tfgS4Bt14PRK0usx-5">
          <mxGeometry relative="1" as="geometry" />
        </mxCell>
        <object placeholders="1" c4Name="Proxy" c4Type="Container" c4Technology="NGINX" c4Description="" label="&lt;font style=&quot;font-size: 16px&quot;&gt;&lt;b&gt;%c4Name%&lt;/b&gt;&lt;/font&gt;&lt;div&gt;[%c4Type%: %c4Technology%]&lt;/div&gt;&lt;br&gt;&lt;div&gt;&lt;font style=&quot;font-size: 11px&quot;&gt;&lt;font color=&quot;#E6E6E6&quot;&gt;%c4Description%&lt;/font&gt;&lt;/div&gt;" id="dyh5tfgS4Bt14PRK0usx-2">
          <mxCell style="rounded=1;whiteSpace=wrap;html=1;fontSize=11;labelBackgroundColor=none;fillColor=#23A2D9;fontColor=#ffffff;align=center;arcSize=10;strokeColor=#0E7DAD;metaEdit=1;resizable=0;points=[[0.25,0,0],[0.5,0,0],[0.75,0,0],[1,0.25,0],[1,0.5,0],[1,0.75,0],[0.75,1,0],[0.5,1,0],[0.25,1,0],[0,0.75,0],[0,0.5,0],[0,0.25,0]];" vertex="1" parent="4b0qa3zkEUUkzy0Bb4p2-1">
            <mxGeometry x="30" y="240" width="240" height="120" as="geometry" />
          </mxCell>
        </object>
        <object placeholders="1" c4Name="Orchestrator" c4Type="Container" c4Technology="Orchestrator" c4Description="" label="&lt;font style=&quot;font-size: 16px&quot;&gt;&lt;b&gt;%c4Name%&lt;/b&gt;&lt;/font&gt;&lt;div&gt;[%c4Type%: %c4Technology%]&lt;/div&gt;&lt;br&gt;&lt;div&gt;&lt;font style=&quot;font-size: 11px&quot;&gt;&lt;font color=&quot;#E6E6E6&quot;&gt;%c4Description%&lt;/font&gt;&lt;/div&gt;" id="dyh5tfgS4Bt14PRK0usx-5">
          <mxCell style="rounded=1;whiteSpace=wrap;html=1;fontSize=11;labelBackgroundColor=none;fillColor=#23A2D9;fontColor=#ffffff;align=center;arcSize=10;strokeColor=#0E7DAD;metaEdit=1;resizable=0;points=[[0.25,0,0],[0.5,0,0],[0.75,0,0],[1,0.25,0],[1,0.5,0],[1,0.75,0],[0.75,1,0],[0.5,1,0],[0.25,1,0],[0,0.75,0],[0,0.5,0],[0,0.25,0]];" vertex="1" parent="4b0qa3zkEUUkzy0Bb4p2-1">
            <mxGeometry x="300" y="240" width="240" height="120" as="geometry" />
          </mxCell>
        </object>
        <mxCell id="dyh5tfgS4Bt14PRK0usx-11" value="" style="edgeStyle=orthogonalEdgeStyle;rounded=0;orthogonalLoop=1;jettySize=auto;html=1;" edge="1" parent="4b0qa3zkEUUkzy0Bb4p2-1" source="dyh5tfgS4Bt14PRK0usx-10" target="dyh5tfgS4Bt14PRK0usx-2">
          <mxGeometry relative="1" as="geometry" />
        </mxCell>
        <mxCell id="dyh5tfgS4Bt14PRK0usx-10" value="Clinic&lt;div&gt;Microsoft Devtunnel&lt;/div&gt;" style="ellipse;shape=cloud;whiteSpace=wrap;html=1;" vertex="1" parent="4b0qa3zkEUUkzy0Bb4p2-1">
          <mxGeometry x="60" y="130" width="180" height="80" as="geometry" />
        </mxCell>
        <object placeholders="1" c4Name="Hospital" c4Type="SystemScopeBoundary" c4Application="Docker Compose" label="&lt;font style=&quot;font-size: 16px&quot;&gt;&lt;b&gt;&lt;div style=&quot;text-align: left&quot;&gt;%c4Name%&lt;/div&gt;&lt;/b&gt;&lt;/font&gt;&lt;div style=&quot;text-align: left&quot;&gt;[%c4Application%]&lt;/div&gt;" id="dyh5tfgS4Bt14PRK0usx-12">
          <mxCell style="rounded=1;fontSize=11;whiteSpace=wrap;html=1;dashed=1;arcSize=20;fillColor=none;strokeColor=#666666;fontColor=#333333;labelBackgroundColor=none;align=left;verticalAlign=bottom;labelBorderColor=none;spacingTop=0;spacing=10;dashPattern=8 4;metaEdit=1;rotatable=0;perimeter=rectanglePerimeter;noLabel=0;labelPadding=0;allowArrows=0;connectable=0;expand=0;recursiveResize=0;editable=1;pointerEvents=0;absoluteArcSize=1;points=[[0.25,0,0],[0.5,0,0],[0.75,0,0],[1,0.25,0],[1,0.5,0],[1,0.75,0],[0.75,1,0],[0.5,1,0],[0.25,1,0],[0,0.75,0],[0,0.5,0],[0,0.25,0]];" vertex="1" parent="4b0qa3zkEUUkzy0Bb4p2-1">
            <mxGeometry x="580" y="220" width="560" height="390" as="geometry" />
          </mxCell>
        </object>
        <object placeholders="1" c4Name="SSI Wallet" c4Type="Container" c4Technology="Nuts Node" c4Description="" label="&lt;font style=&quot;font-size: 16px&quot;&gt;&lt;b&gt;%c4Name%&lt;/b&gt;&lt;/font&gt;&lt;div&gt;[%c4Type%: %c4Technology%]&lt;/div&gt;&lt;br&gt;&lt;div&gt;&lt;font style=&quot;font-size: 11px&quot;&gt;&lt;font color=&quot;#E6E6E6&quot;&gt;%c4Description%&lt;/font&gt;&lt;/div&gt;" id="dyh5tfgS4Bt14PRK0usx-13">
          <mxCell style="rounded=1;whiteSpace=wrap;html=1;fontSize=11;labelBackgroundColor=none;fillColor=#23A2D9;fontColor=#ffffff;align=center;arcSize=10;strokeColor=#0E7DAD;metaEdit=1;resizable=0;points=[[0.25,0,0],[0.5,0,0],[0.75,0,0],[1,0.25,0],[1,0.5,0],[1,0.75,0],[0.75,1,0],[0.5,1,0],[0.25,1,0],[0,0.75,0],[0,0.5,0],[0,0.25,0]];" vertex="1" parent="4b0qa3zkEUUkzy0Bb4p2-1">
            <mxGeometry x="600" y="400" width="240" height="120" as="geometry" />
          </mxCell>
        </object>
        <mxCell id="dyh5tfgS4Bt14PRK0usx-14" value="" style="edgeStyle=orthogonalEdgeStyle;rounded=0;orthogonalLoop=1;jettySize=auto;html=1;" edge="1" source="dyh5tfgS4Bt14PRK0usx-16" target="dyh5tfgS4Bt14PRK0usx-13" parent="4b0qa3zkEUUkzy0Bb4p2-1">
          <mxGeometry relative="1" as="geometry" />
        </mxCell>
        <mxCell id="dyh5tfgS4Bt14PRK0usx-15" value="" style="edgeStyle=orthogonalEdgeStyle;rounded=0;orthogonalLoop=1;jettySize=auto;html=1;" edge="1" source="dyh5tfgS4Bt14PRK0usx-16" target="dyh5tfgS4Bt14PRK0usx-17" parent="4b0qa3zkEUUkzy0Bb4p2-1">
          <mxGeometry relative="1" as="geometry" />
        </mxCell>
        <object placeholders="1" c4Name="Proxy" c4Type="Container" c4Technology="NGINX" c4Description="" label="&lt;font style=&quot;font-size: 16px&quot;&gt;&lt;b&gt;%c4Name%&lt;/b&gt;&lt;/font&gt;&lt;div&gt;[%c4Type%: %c4Technology%]&lt;/div&gt;&lt;br&gt;&lt;div&gt;&lt;font style=&quot;font-size: 11px&quot;&gt;&lt;font color=&quot;#E6E6E6&quot;&gt;%c4Description%&lt;/font&gt;&lt;/div&gt;" id="dyh5tfgS4Bt14PRK0usx-16">
          <mxCell style="rounded=1;whiteSpace=wrap;html=1;fontSize=11;labelBackgroundColor=none;fillColor=#23A2D9;fontColor=#ffffff;align=center;arcSize=10;strokeColor=#0E7DAD;metaEdit=1;resizable=0;points=[[0.25,0,0],[0.5,0,0],[0.75,0,0],[1,0.25,0],[1,0.5,0],[1,0.75,0],[0.75,1,0],[0.5,1,0],[0.25,1,0],[0,0.75,0],[0,0.5,0],[0,0.25,0]];" vertex="1" parent="4b0qa3zkEUUkzy0Bb4p2-1">
            <mxGeometry x="600" y="240" width="240" height="120" as="geometry" />
          </mxCell>
        </object>
        <mxCell id="dyh5tfgS4Bt14PRK0usx-21" value="" style="edgeStyle=orthogonalEdgeStyle;rounded=0;orthogonalLoop=1;jettySize=auto;html=1;" edge="1" parent="4b0qa3zkEUUkzy0Bb4p2-1" source="dyh5tfgS4Bt14PRK0usx-17" target="dyh5tfgS4Bt14PRK0usx-20">
          <mxGeometry relative="1" as="geometry" />
        </mxCell>
        <object placeholders="1" c4Name="SMART on FHIR Adapter" c4Type="Container" c4Technology="SMART on FHIR Adapter" c4Description="" label="&lt;font style=&quot;font-size: 16px&quot;&gt;&lt;b&gt;%c4Name%&lt;/b&gt;&lt;/font&gt;&lt;div&gt;[%c4Type%: %c4Technology%]&lt;/div&gt;&lt;br&gt;&lt;div&gt;&lt;font style=&quot;font-size: 11px&quot;&gt;&lt;font color=&quot;#E6E6E6&quot;&gt;%c4Description%&lt;/font&gt;&lt;/div&gt;" id="dyh5tfgS4Bt14PRK0usx-17">
          <mxCell style="rounded=1;whiteSpace=wrap;html=1;fontSize=11;labelBackgroundColor=none;fillColor=#23A2D9;fontColor=#ffffff;align=center;arcSize=10;strokeColor=#0E7DAD;metaEdit=1;resizable=0;points=[[0.25,0,0],[0.5,0,0],[0.75,0,0],[1,0.25,0],[1,0.5,0],[1,0.75,0],[0.75,1,0],[0.5,1,0],[0.25,1,0],[0,0.75,0],[0,0.5,0],[0,0.25,0]];" vertex="1" parent="4b0qa3zkEUUkzy0Bb4p2-1">
            <mxGeometry x="870" y="240" width="240" height="120" as="geometry" />
          </mxCell>
        </object>
        <mxCell id="dyh5tfgS4Bt14PRK0usx-18" value="" style="edgeStyle=orthogonalEdgeStyle;rounded=0;orthogonalLoop=1;jettySize=auto;html=1;" edge="1" source="dyh5tfgS4Bt14PRK0usx-19" target="dyh5tfgS4Bt14PRK0usx-16" parent="4b0qa3zkEUUkzy0Bb4p2-1">
          <mxGeometry relative="1" as="geometry" />
        </mxCell>
        <mxCell id="dyh5tfgS4Bt14PRK0usx-19" value="Hosptical&lt;div&gt;Microsoft Devtunnel&lt;/div&gt;" style="ellipse;shape=cloud;whiteSpace=wrap;html=1;" vertex="1" parent="4b0qa3zkEUUkzy0Bb4p2-1">
          <mxGeometry x="630" y="120" width="180" height="80" as="geometry" />
        </mxCell>
        <object placeholders="1" c4Name="SMART on FHIR Sandbox" c4Type="Software System" c4Description="Public SMART on FHIR test server with fake data" label="&lt;font style=&quot;font-size: 16px&quot;&gt;&lt;b&gt;%c4Name%&lt;/b&gt;&lt;/font&gt;&lt;div&gt;[%c4Type%]&lt;/div&gt;&lt;br&gt;&lt;div&gt;&lt;font style=&quot;font-size: 11px&quot;&gt;&lt;font color=&quot;#cccccc&quot;&gt;%c4Description%&lt;/font&gt;&lt;/div&gt;" id="dyh5tfgS4Bt14PRK0usx-20">
          <mxCell style="rounded=1;whiteSpace=wrap;html=1;labelBackgroundColor=none;fillColor=#8C8496;fontColor=#ffffff;align=center;arcSize=10;strokeColor=#736782;metaEdit=1;resizable=0;points=[[0.25,0,0],[0.5,0,0],[0.75,0,0],[1,0.25,0],[1,0.5,0],[1,0.75,0],[0.75,1,0],[0.5,1,0],[0.25,1,0],[0,0.75,0],[0,0.5,0],[0,0.25,0]];" vertex="1" parent="4b0qa3zkEUUkzy0Bb4p2-1">
            <mxGeometry x="870" y="-90" width="240" height="120" as="geometry" />
          </mxCell>
        </object>
        <mxCell id="dyh5tfgS4Bt14PRK0usx-24" value="" style="edgeStyle=orthogonalEdgeStyle;rounded=0;orthogonalLoop=1;jettySize=auto;html=1;" edge="1" parent="4b0qa3zkEUUkzy0Bb4p2-1" source="dyh5tfgS4Bt14PRK0usx-22" target="dyh5tfgS4Bt14PRK0usx-5">
          <mxGeometry relative="1" as="geometry" />
        </mxCell>
        <mxCell id="dyh5tfgS4Bt14PRK0usx-25" value="View data at Hospital&lt;div&gt;through demo endpoints&lt;/div&gt;" style="edgeLabel;html=1;align=center;verticalAlign=middle;resizable=0;points=[];" vertex="1" connectable="0" parent="dyh5tfgS4Bt14PRK0usx-24">
          <mxGeometry x="0.2" y="1" relative="1" as="geometry">
            <mxPoint x="-1" y="-94" as="offset" />
          </mxGeometry>
        </mxCell>
        <object placeholders="1" c4Name="Developer" c4Type="Person" c4Description="Develops Orca" label="&lt;font style=&quot;font-size: 16px&quot;&gt;&lt;b&gt;%c4Name%&lt;/b&gt;&lt;/font&gt;&lt;div&gt;[%c4Type%]&lt;/div&gt;&lt;br&gt;&lt;div&gt;&lt;font style=&quot;font-size: 11px&quot;&gt;&lt;font color=&quot;#cccccc&quot;&gt;%c4Description%&lt;/font&gt;&lt;/div&gt;" id="dyh5tfgS4Bt14PRK0usx-22">
          <mxCell style="html=1;fontSize=11;dashed=0;whiteSpace=wrap;fillColor=#083F75;strokeColor=#06315C;fontColor=#ffffff;shape=mxgraph.c4.person2;align=center;metaEdit=1;points=[[0.5,0,0],[1,0.5,0],[1,0.75,0],[0.75,1,0],[0.5,1,0],[0.25,1,0],[0,0.75,0],[0,0.5,0]];resizable=0;" vertex="1" parent="4b0qa3zkEUUkzy0Bb4p2-1">
            <mxGeometry x="320" y="-150" width="200" height="180" as="geometry" />
          </mxCell>
        </object>
        <mxCell id="dyh5tfgS4Bt14PRK0usx-26" value="This diagram shows what resources are deployed and used in the dev-deployment of Orca.&lt;div&gt;It currently supports the following features:&lt;/div&gt;&lt;div&gt;&lt;ul&gt;&lt;li&gt;Clinic views data at hardcoded remote party (hospital)&lt;/li&gt;&lt;li&gt;Hospital proxies FHIR operations to public SMART on FHIR sandbox&lt;/li&gt;&lt;li&gt;Demo endpoints in clinic&#39;s orchestrator to view data&lt;/li&gt;&lt;/ul&gt;&lt;div&gt;What it currently does not do:&lt;/div&gt;&lt;/div&gt;&lt;div&gt;&lt;ul&gt;&lt;li&gt;Use CarePlan Service for localization and/or authorization&lt;/li&gt;&lt;li&gt;Authorizing data access at hospital&lt;/li&gt;&lt;/ul&gt;&lt;/div&gt;" style="text;html=1;align=left;verticalAlign=top;whiteSpace=wrap;rounded=0;" vertex="1" parent="4b0qa3zkEUUkzy0Bb4p2-1">
          <mxGeometry x="-50" y="680" width="520" height="170" as="geometry" />
        </mxCell>
      </root>
    </mxGraphModel>
  </diagram>
</mxfile>
